<svg width="21" height="23" viewBox="0 0 21 23" fill="none" xmlns="http://www.w3.org/2000/svg">
<path d="M20.0384 3.36957C20.583 2.77309 20.583 1.85977 20.0384 1.26329C19.4191 0.584946 18.3509 0.584946 17.7316 1.26329L11.977 7.56593C11.1839 8.43455 9.81611 8.43455 9.02303 7.56594L3.26844 1.26329C2.64908 0.584947 1.58092 0.584946 0.961562 1.26329C0.41695 1.85977 0.41695 2.77309 0.961562 3.36957L7.15372 10.1515C7.8511 10.9152 7.8511 12.0848 7.15373 12.8485L0.961563 19.6304C0.416951 20.2269 0.41695 21.1402 0.961562 21.7367C1.58092 22.4151 2.64908 22.4151 3.26844 21.7367L9.02303 15.4341C9.81611 14.5654 11.1839 14.5654 11.977 15.4341L17.7316 21.7367C18.3509 22.4151 19.4191 22.4151 20.0384 21.7367C20.583 21.1402 20.583 20.2269 20.0384 19.6304L13.8463 12.8485C13.1489 12.0848 13.1489 10.9152 13.8463 10.1515L20.0384 3.36957Z" fill="#DCDEE0"/>
</svg>
